<?xml version="1.0" encoding="utf-8"?>
<!-- Generator: Adobe Illustrator 23.0.1, SVG Export Plug-In . SVG Version: 6.00 Build 0)  -->
<svg version="1.1" id="Layer_1" xmlns="http://www.w3.org/2000/svg" xmlns:xlink="http://www.w3.org/1999/xlink" x="0px" y="0px"
	 viewBox="0 0 25.3 18.3" style="enable-background:new 0 0 25.3 18.3;" xml:space="preserve">
<style type="text/css">
	.st0{fill:#F0EDF5;}
	.st1{fill:#FF6680;}
</style>
<path class="st0" d="M8.4,18.3c-2.5,0-4.5-0.7-6-2.2C0.9,14.6,0.1,12.6,0,9.9l0-0.8l0-0.8c0.1-2.6,0.9-4.6,2.4-6.1
	C3.9,0.7,5.9,0,8.4,0c2.7,0,4.8,0.8,6.2,2.4c1.5,1.6,2.2,3.8,2.2,6.5v0.7c0,0.2-0.1,0.4-0.2,0.6c-0.2,0.2-0.4,0.2-0.6,0.2H4.7v0.3
	c0,1.2,0.4,2.3,1,3.1c0.7,0.8,1.6,1.3,2.7,1.3c1.3,0,2.4-0.5,3.2-1.6c0.2-0.2,0.4-0.4,0.5-0.5c0.1-0.1,0.3-0.1,0.6-0.1h2.9
	c0.2,0,0.4,0.1,0.5,0.2c0.2,0.1,0.2,0.3,0.2,0.4c0,0.5-0.3,1.2-1,1.9c-0.6,0.7-1.6,1.4-2.8,1.9C11.4,18,10,18.3,8.4,18.3z M12.2,7.6
	V7.5c0-1.3-0.3-2.4-1-3.2c-0.7-0.8-1.6-1.2-2.8-1.2S6.3,3.5,5.7,4.3c-0.7,0.8-1,1.9-1,3.2v0.1H12.2z"/>
<path class="st1" d="M21.1,17.9c-0.2,0-0.4-0.1-0.6-0.2c-0.2-0.2-0.2-0.3-0.2-0.6v-3.3c0-0.2,0.1-0.4,0.2-0.6
	c0.2-0.2,0.4-0.3,0.6-0.3h3.4c0.2,0,0.4,0.1,0.6,0.3c0.2,0.2,0.2,0.3,0.2,0.6v3.3c0,0.2-0.1,0.4-0.2,0.6c-0.2,0.2-0.4,0.2-0.6,0.2
	H21.1z"/>
</svg>
