<svg width="476" height="514" viewBox="0 0 476 514" fill="none" xmlns="http://www.w3.org/2000/svg">
<path d="M432.849 436.361C451.207 415.654 460.765 397.378 460.765 381.626C460.765 375.972 458.241 371.36 453.438 367.908C449.275 363.84 444.071 361.822 437.968 361.822H356.668C349.602 361.822 343.889 362.77 339.709 364.841L339.641 364.875L339.575 364.914C336.093 366.985 331.488 371.612 325.82 378.479L325.806 378.495L325.793 378.512C303.491 406.759 274.137 420.856 237.555 420.856C206.617 420.856 182.326 409.549 164.46 386.968C147.11 363.618 137.765 334.998 136.512 301.004V295.544H448.366C455.759 295.544 461.959 293.194 466.791 288.406C471.583 283.655 474 277.833 474 271.056V251.378C474 176.041 453.407 115.552 412.037 70.1259C371.238 24.6336 313.291 2 238.5 2C168.76 2 112.762 22.4379 70.7224 63.4763L70.7169 63.4816L70.7115 63.487C29.31 104.525 7.11519 160.956 3.94729 232.549L3.94697 232.556L3.00163 255.982L2.99837 256.063L3.00163 256.144L3.94653 279.558C3.9466 279.56 3.94667 279.562 3.94674 279.564C6.4813 353.017 28.3506 410.398 69.7661 451.45L69.7771 451.461L69.7881 451.472C111.832 491.883 168.144 512 238.5 512C282.842 512 321.889 504.465 355.596 489.336C389.167 474.268 414.958 456.629 432.849 436.361ZM432.849 436.361C432.848 436.362 432.848 436.363 432.847 436.364L431.35 435.037M432.849 436.361C432.849 436.361 432.849 436.361 432.85 436.361L431.35 435.037M431.35 435.037C449.627 414.422 458.765 396.618 458.765 381.626C458.765 376.628 456.559 372.568 452.148 369.444L71.1741 450.03C112.769 490.01 168.545 510 238.5 510C282.616 510 321.375 502.504 354.777 487.511C388.18 472.519 413.704 455.027 431.35 435.037ZM313.521 124.265L313.531 124.278L313.542 124.291C332.075 146.335 341.433 175.513 341.433 212.022V212.833H136.512V212.022C136.512 175.498 145.564 146.31 163.479 124.265C181.323 102.308 206.241 91.2704 238.5 91.2704C270.759 91.2704 295.677 102.308 313.521 124.265Z" stroke="#5E4399" stroke-width="4"/>
<path d="M210.242 122.743C212.771 121.297 214.758 122.382 214.758 125.275L215.3 320.744C215.3 323.637 213.313 327.073 210.965 328.338L118.847 381.681C116.319 383.128 114.332 382.043 114.332 379.15L113.79 183.68C113.79 180.787 115.777 177.352 118.125 176.086L210.242 122.743Z" fill="#F0EDF5"/>
<path d="M219.093 246.787L218.912 167.045L218.731 114.968C218.731 109.543 214.938 107.373 210.242 110.086L118.125 163.428C113.429 166.141 109.636 172.831 109.636 178.256V209.538L109.816 254.201V274.996V295.429L109.997 389.456C109.997 394.881 113.79 397.051 118.486 394.339L210.603 340.996C215.3 338.284 219.093 331.593 219.093 326.169V246.787ZM210.784 328.338L118.667 381.681C116.138 383.128 114.151 382.043 114.151 379.149L113.971 293.078V272.645V251.85L113.79 207.187V183.68C113.79 180.787 115.777 177.352 118.125 176.086L210.242 122.743C212.771 121.297 214.758 122.382 214.758 125.275V169.395L214.938 249.138L215.119 320.744C215.3 323.637 213.313 327.073 210.784 328.338Z" fill="#735BA8"/>
<path d="M209.52 105.565C207.894 104.661 205.907 104.842 203.379 106.108L111.261 159.45C106.565 162.163 102.772 168.853 102.772 174.278L103.314 385.478C103.314 388.191 104.217 389.999 105.843 390.903L112.706 394.881C111.261 393.977 110.178 392.169 110.178 389.456L109.636 178.075C109.636 172.65 113.429 166.141 118.125 163.247L210.242 109.905C212.59 108.82 214.758 108.639 216.383 109.543L209.52 105.565Z" fill="#55457A"/>
<path d="M166.17 142.814L150.276 152.036C149.914 152.217 149.553 152.036 149.553 151.494C149.553 150.951 149.914 150.409 150.276 150.228L166.351 141.006C166.712 140.825 167.074 141.006 167.074 141.549C166.893 142.091 166.532 142.634 166.17 142.814Z" fill="#503F75"/>
<path d="M169.241 140.283C169.241 139.379 169.963 138.113 171.047 137.571C171.95 137.028 172.853 137.39 172.853 138.294C172.853 139.198 172.131 140.464 171.047 141.006C169.963 141.549 169.241 141.187 169.241 140.283Z" fill="#503F75"/>
<path d="M169.241 140.283C169.241 139.379 169.963 138.113 171.047 137.571C171.95 137.028 172.853 137.39 172.853 138.294C172.853 139.198 172.131 140.464 171.047 141.006C169.963 141.549 169.241 141.187 169.241 140.283Z" fill="#503F75"/>
<path d="M146.583 300.754C146.123 300.447 145.358 300.447 144.592 300.907L89.7571 332.649C88.2254 333.569 87 335.716 87 337.402L87.1532 365.923C87.1532 366.843 87.4595 367.457 87.919 367.763L89.1444 368.377C88.6849 368.07 88.3785 367.457 88.3785 366.537L88.2254 338.016C88.2254 336.176 89.4507 334.029 90.9824 333.262L145.664 301.674C146.43 301.214 147.196 301.214 147.655 301.521L146.583 300.754Z" fill="#55457A"/>
<path d="M145.664 301.587C147.196 300.666 148.421 301.433 148.421 303.12L148.574 331.641C148.574 333.481 147.349 335.628 145.817 336.395L90.9825 368.289C89.4508 369.209 88.2254 368.443 88.2254 366.756L88.0723 338.235C88.0723 336.395 89.2976 334.248 90.8293 333.481L145.664 301.587Z" fill="#7E5ACC"/>
<path d="M107.065 343.141V344.982L100.479 348.815V339.001L106.912 335.168V337.008L102.47 339.615V341.761L106.453 339.461V341.301L102.47 343.602V345.902L107.065 343.141Z" fill="white"/>
<path d="M108.444 336.548L114.264 333.174V334.861L108.444 338.235V336.548ZM108.444 340.075L114.264 336.701V338.388L108.444 341.761V340.075Z" fill="white"/>
<path d="M126.212 327.041C126.671 327.348 126.977 327.961 126.977 329.188V333.481L125.139 334.554V330.568C125.139 329.954 124.986 329.648 124.833 329.341C124.68 329.188 124.374 329.188 123.914 329.494C123.455 329.801 123.148 330.108 122.842 330.568C122.536 331.028 122.382 331.641 122.382 332.254V336.088L120.544 337.161V333.174C120.544 331.948 120.085 331.641 119.319 332.101C118.859 332.408 118.553 332.714 118.247 333.174C117.94 333.634 117.787 334.248 117.787 334.861V338.695L115.949 339.768V332.254L117.787 331.181V332.101C118.094 331.641 118.4 331.181 118.706 330.874C119.013 330.568 119.472 330.261 119.932 329.954C120.391 329.648 120.851 329.494 121.157 329.494C121.463 329.494 121.77 329.648 122.076 329.954C122.382 329.341 122.689 328.881 123.148 328.421C123.608 327.961 124.067 327.654 124.527 327.348C125.139 326.734 125.752 326.734 126.212 327.041Z" fill="white"/>
<path d="M130.041 331.181C129.428 331.181 128.968 331.028 128.662 330.568C128.356 330.108 128.203 329.648 128.203 328.881C128.203 328.114 128.356 327.348 128.662 326.581C128.968 325.814 129.428 325.047 130.041 324.434C130.653 323.821 131.266 323.207 131.879 322.901C132.645 322.441 133.104 322.287 133.717 322.287C134.176 322.287 134.636 322.594 134.789 323.054L133.257 324.894C132.951 324.434 132.491 324.281 131.726 324.741C131.266 325.047 130.807 325.507 130.5 325.967C130.194 326.581 130.041 327.194 130.041 327.808C130.041 328.421 130.194 328.881 130.5 329.034C130.807 329.188 131.266 329.188 131.726 328.881C132.338 328.574 132.798 327.808 133.257 327.041H134.789C134.483 327.808 134.176 328.421 133.717 329.034C133.257 329.648 132.645 330.261 131.879 330.568C131.266 331.028 130.653 331.181 130.041 331.181Z" fill="white"/>
<path d="M139.844 320.754V321.981L135.555 324.434V323.514L137.699 320.141C137.852 319.834 138.159 319.527 138.159 319.374C138.312 319.221 138.312 319.067 138.312 318.914C138.312 318.761 138.312 318.607 138.159 318.607C138.006 318.607 137.852 318.607 137.546 318.761C137.24 318.914 137.087 319.067 136.933 319.374C136.78 319.527 136.627 319.834 136.474 320.141L135.555 319.987C135.708 319.527 136.014 319.067 136.474 318.607C136.78 318.147 137.24 317.84 137.852 317.534C138.465 317.227 139.078 317.074 139.384 317.074C139.691 317.227 139.997 317.534 139.997 317.994C139.997 318.301 139.997 318.607 139.844 318.914C139.691 319.221 139.384 319.681 139.078 320.294L137.852 322.134L139.844 320.754Z" fill="white"/>
<path d="M220.043 157.839L220.949 158.358C220.82 158.358 220.82 158.358 220.69 158.228H220.561C220.172 158.228 219.784 158.228 219.395 158.488L173.156 185.328C171.861 186.106 170.825 187.922 170.825 189.348V192.979V241.214C170.825 241.473 170.825 241.603 170.825 241.732C170.825 241.862 170.825 241.862 170.825 241.862C170.825 241.992 170.825 241.992 170.954 242.121C170.954 242.121 170.954 242.251 171.084 242.251L171.213 242.381C171.213 242.51 171.343 242.51 171.472 242.51L170.566 241.992C170.177 241.732 169.918 241.214 169.918 240.436V193.368V188.57C169.918 187.014 170.954 185.199 172.25 184.55L218.489 157.839C219.136 157.58 219.654 157.58 220.043 157.839Z" fill="#55457A"/>
<path d="M221.856 211.65C221.856 213.206 220.82 215.022 219.525 215.67L188.958 233.434L173.156 242.51C172.509 242.899 171.861 242.899 171.343 242.64C171.213 242.64 171.213 242.51 171.084 242.51L170.954 242.381L170.825 242.251C170.825 242.251 170.825 242.121 170.695 241.992V241.862C170.695 241.732 170.695 241.473 170.695 241.343V193.108V189.478C170.695 187.922 171.731 186.106 173.027 185.458L219.266 158.747C219.654 158.488 220.172 158.358 220.431 158.488H220.561C220.69 158.488 220.69 158.488 220.82 158.617C220.82 158.617 220.82 158.617 220.949 158.617C221.338 158.877 221.597 159.395 221.597 160.173L221.856 211.65Z" fill="#6A549C"/>
<path d="M210.199 152.317L211.319 153.224C211.189 153.224 210.887 153.095 210.757 152.965L210.406 152.765C210.018 152.765 209.94 152.706 209.552 152.965L163.183 179.806C161.888 180.584 160.852 182.399 160.852 183.825V187.456V235.691C160.852 235.951 160.852 236.08 160.852 236.21C160.852 236.34 160.852 236.34 160.852 236.34C160.852 236.469 160.852 236.469 160.981 236.599C160.981 236.599 160.981 236.729 161.111 236.729L161.24 236.858C161.24 236.988 161.37 236.988 161.499 236.988L160.593 236.469C160.204 236.21 159.945 235.691 159.945 234.913V187.845V183.047C159.945 181.491 160.981 179.676 162.276 179.028L208.515 152.317C209.163 152.058 209.811 152.058 210.199 152.317Z" fill="#55457A"/>
<path d="M211.883 205.945C211.883 207.501 210.847 209.316 209.552 209.965L178.985 227.729L163.183 236.805C162.535 237.194 161.888 237.194 161.37 236.935C161.24 236.935 161.24 236.805 161.111 236.805L160.981 236.676L160.852 236.546C160.852 236.546 160.852 236.416 160.722 236.287V236.157C160.722 236.027 160.722 235.768 160.722 235.638V187.403V183.772C160.722 182.216 161.758 180.401 163.054 179.753L209.292 153.042C209.681 152.783 210.199 152.653 210.458 152.783H210.588C210.717 152.783 210.717 152.783 210.847 152.912C210.847 152.912 210.847 152.912 210.976 152.912C211.365 153.172 211.624 153.69 211.624 154.468L211.883 205.945Z" fill="#503F75"/>
<path d="M230.275 164.323L231.182 164.841C231.052 164.841 231.052 164.841 230.922 164.712H230.793C230.404 164.712 230.016 164.712 229.627 164.971L183.259 191.812C181.964 192.59 180.927 194.405 180.927 195.831V199.462V247.697C180.927 247.956 180.927 248.086 180.927 248.216C180.927 248.345 180.927 248.345 180.927 248.345C180.927 248.475 180.927 248.475 181.057 248.605C181.057 248.605 181.057 248.734 181.186 248.734L181.316 248.864C181.316 248.994 181.445 248.994 181.575 248.994L180.668 248.475C180.28 248.216 180.021 247.697 180.021 246.919V199.851V195.053C180.021 193.497 181.057 191.682 182.352 191.034L228.591 164.323C229.239 164.063 229.886 164.063 230.275 164.323Z" fill="#55457A"/>
<path d="M231.959 218.263C231.959 219.819 230.922 221.634 229.627 222.283L199.06 239.917L183.259 248.994C182.611 249.383 181.964 249.383 181.445 249.123C181.316 249.123 181.316 248.994 181.186 248.994L181.057 248.864L180.927 248.734C180.927 248.734 180.927 248.605 180.798 248.475V248.345C180.798 248.216 180.798 247.956 180.798 247.827V199.591V195.961C180.798 194.405 181.834 192.59 183.129 191.941L229.368 165.23C229.757 164.971 230.275 164.841 230.534 164.971H230.663C230.793 164.971 230.793 164.971 230.922 165.101C230.922 165.101 230.922 165.101 231.052 165.101C231.44 165.36 231.7 165.879 231.7 166.657L231.959 218.263Z" fill="#61C5BD"/>
<path d="M215.121 200.24L205.536 199.462C204.5 199.332 203.723 200.11 203.723 201.147V213.855C203.723 215.411 205.666 216.189 206.702 214.892L216.287 202.963C217.193 201.925 216.546 200.369 215.121 200.24Z" fill="#F0EDF5"/>
<path d="M121.86 267.304L93.5024 283.759C89.89 285.748 87 283.578 87 279.057V232.224C87 227.523 89.89 222.098 93.3218 220.109L121.679 203.654C125.111 201.665 128.001 203.835 128.001 208.537V255.189C128.182 259.89 125.292 265.315 121.86 267.304Z" fill="#55457A"/>
<path d="M123.486 268.208L94.9473 284.663C91.5154 286.652 88.6255 284.482 88.6255 279.781V233.128C88.6255 228.427 91.5154 223.002 94.9473 221.013L123.305 204.558C126.737 202.569 129.627 204.739 129.627 209.441V256.093C129.807 260.794 126.917 266.219 123.486 268.208Z" fill="#7E5ACC"/>
<path d="M121.86 231.682L96.9342 246.148C95.4892 247.052 94.2249 246.148 94.2249 244.159V232.043C94.2249 230.054 95.4892 227.704 96.9342 226.98L121.86 212.515C123.305 211.611 124.569 212.515 124.569 214.504V226.619C124.569 228.427 123.305 230.778 121.86 231.682Z" fill="white"/>
<path d="M105.965 258.082L96.0311 264.049C94.9473 264.592 94.2249 264.049 94.2249 262.603V255.912C94.2249 254.466 95.128 253.019 96.0311 252.296L106.146 246.509C107.23 245.967 107.952 246.509 107.952 247.956V254.646C107.952 255.912 107.049 257.54 105.965 258.082Z" fill="#61C5BD"/>
<path d="M122.582 248.498L112.468 254.285C111.384 254.827 110.661 254.285 110.661 252.838V246.148C110.661 244.701 111.564 243.255 112.468 242.531L122.582 236.745C123.666 236.202 124.389 236.745 124.389 238.191V244.882C124.569 246.329 123.666 247.956 122.582 248.498Z" fill="#61C5BD"/>
<path d="M105.965 272.548L96.0311 278.334C94.9473 278.877 94.2249 278.334 94.2249 276.887V270.197C94.2249 268.75 95.128 267.304 96.0311 266.581L106.146 260.794C107.23 260.252 107.952 260.794 107.952 262.241V268.931C107.952 270.378 107.049 272.005 105.965 272.548Z" fill="#61C5BD"/>
<path d="M122.582 262.964L112.468 268.75C111.384 269.293 110.661 268.751 110.661 267.304V260.613C110.661 259.167 111.564 257.72 112.468 256.997L122.582 251.211C123.666 250.668 124.389 251.211 124.389 252.657V259.348C124.569 260.613 123.666 262.241 122.582 262.964Z" fill="#FF6680"/>
<path d="M101.45 257.72L100.547 258.263V252.657L101.45 252.115V257.72Z" fill="white"/>
<path d="M103.437 253.2V254.466L98.5598 257.178V256.093L103.437 253.2Z" fill="white"/>
<path d="M99.6436 272.729L98.9211 272.367L102.353 266.4L103.075 266.761L99.6436 272.729Z" fill="white"/>
<path d="M103.075 270.016L102.353 271.282L98.9211 269.293L99.6436 268.027L103.075 270.016Z" fill="white"/>
<path d="M120.054 243.616V244.882L115.177 247.594V246.329L120.054 243.616Z" fill="white"/>
<path d="M120.054 256.635V257.901L115.177 260.613V259.529L120.054 256.635Z" fill="white"/>
<path d="M120.054 259.167V260.433L115.177 263.145V262.06L120.054 259.167Z" fill="white"/>
<path d="M227.412 395.447C226.615 396.405 226.456 398.16 226.934 398.958C228.369 401.352 233.151 403.745 235.542 404.862C237.933 405.82 240.164 407.415 243.352 408.532C245.903 409.49 250.366 409.011 250.684 406.777C251.003 404.543 250.366 401.99 250.366 401.99L227.412 395.447Z" fill="#D94E6A"/>
<path d="M243.033 395.447C240.802 395.288 235.382 394.809 232.513 394.171C229.644 393.533 228.05 394.49 227.413 395.447C226.456 396.884 230.76 400.554 233.948 401.671C237.136 402.788 240.483 405.022 243.352 405.82C244.946 406.298 249.25 406.777 250.047 404.224C251.003 401.511 249.409 395.607 249.409 395.607L243.033 395.447Z" fill="#FF6680"/>
<path d="M256.901 384.916C256.104 385.873 255.945 387.628 256.423 388.426C257.857 390.82 262.799 392.894 265.03 394.33C267.74 395.926 268.218 398.001 271.406 399.118C273.956 400.075 278.42 399.596 278.738 397.362C279.057 395.128 278.42 392.575 278.42 392.575L256.901 384.916Z" fill="#D94E6A"/>
<path d="M270.928 384.756C268.537 384.916 265.189 385.394 262.32 384.277C259.451 383.16 257.538 383.958 256.901 384.916C255.944 386.352 260.248 390.181 263.436 391.139C267.58 392.416 268.537 395.607 271.406 396.405C273 396.884 277.304 397.362 278.101 394.809C279.057 392.096 277.463 386.192 277.463 386.192L270.928 384.756Z" fill="#FF6680"/>
<path d="M278.419 388.586C278.26 389.862 277.463 390.341 276.347 390.501C273.956 390.82 270.131 388.745 269.653 386.671C269.015 383.799 269.493 354.277 268.856 351.724C262.001 326.99 269.015 299.224 269.015 299.224L272.362 301.618L279.854 304.012C280.97 308.639 282.086 317.735 281.607 326.831C281.448 335.129 279.057 349.809 278.898 352.043C283.52 360.022 279.535 378.692 278.419 388.586Z" fill="#61C5BD"/>
<path d="M278.42 388.586C278.26 389.862 277.463 390.341 276.348 390.501L276.029 389.703C279.535 378.054 273 360.66 275.71 353.32C275.232 339.277 269.812 329.384 269.015 315.341C268.696 308.799 272.681 308.32 272.363 301.778L279.854 304.171C280.97 308.799 282.245 316.299 281.608 325.395C281.448 333.692 278.898 349.969 278.738 352.203C283.52 360.022 279.535 378.692 278.42 388.586Z" fill="#57B0A9"/>
<path d="M263.436 321.405C261.523 333.373 249.887 353.479 248.931 356.033C254.669 362.735 250.525 389.543 250.684 396.724V396.884C249.569 398.798 242.077 398.479 241.599 394.65C241.121 390.66 237.773 361.299 237.614 353.799C240.005 337.682 246.699 315.501 250.206 303.054C254.032 302.735 255.944 303.692 257.538 301.618C262.958 295.075 276.028 295.395 279.376 302.256C279.695 302.735 279.854 303.373 280.013 304.012C283.042 317.575 271.406 322.203 263.436 321.405Z" fill="#61C5BD"/>
<path d="M263.436 321.405C261.524 333.373 249.888 353.48 248.931 356.033C254.67 362.735 250.525 389.543 250.685 396.724V396.884C250.206 397.362 250.047 397.841 248.612 398.001C248.612 391.777 248.134 380.128 247.018 374.065C245.743 368.001 243.671 361.458 246.381 355.075C246.7 351.405 247.656 347.735 248.772 344.224C250.525 338.001 252.438 331.777 254.191 325.714C254.988 322.841 255.945 319.65 258.176 317.575C261.045 314.863 265.19 314.224 269.015 313.426C272.841 312.629 276.985 310.873 278.42 307.203C278.898 305.927 278.898 304.49 279.376 303.054C279.376 302.895 279.535 302.735 279.535 302.416C279.854 302.895 280.014 303.533 280.173 304.171C283.042 317.575 271.406 322.203 263.436 321.405Z" fill="#57B0A9"/>
<path d="M278.419 247.682C282.245 248.799 284.795 254.225 287.665 261.884C290.852 270.501 290.374 281.033 288.621 285.501C287.824 288.852 260.726 281.99 260.726 281.99C260.726 281.99 259.77 275.448 260.408 275.448C261.045 275.288 272.522 273.533 280.173 275.448C275.55 260.927 276.826 256.618 276.826 256.618L278.419 247.682Z" fill="#7E5ACC"/>
<path d="M276.347 277.682C276.029 281.352 278.579 290.927 279.854 304.012C277.782 311.99 262.161 311.352 254.032 308.639C250.844 307.522 248.772 306.086 249.091 304.809C251.641 294.118 251.8 287.097 248.772 278.001C246.54 271.459 245.265 264.278 244.627 260.767C244.468 259.331 244.309 258.533 244.309 258.533L256.582 252.629L265.668 248.161C265.668 248.161 274.753 247.044 278.101 247.682C280.651 248.161 284.158 252.629 283.998 254.384C283.201 262.682 276.666 274.012 276.347 277.682Z" fill="#7E5ACC"/>
<path d="M269.653 240.661C269.653 240.98 269.653 241.14 269.493 241.459C269.334 242.735 269.174 243.214 269.174 243.693C269.174 244.331 269.334 245.129 269.334 248.64C268.377 254.544 258.176 253.905 258.017 252.629C257.857 250.714 256.741 247.682 257.22 246.086C256.104 246.086 253.872 246.565 252.119 246.246C250.684 245.927 249.728 244.81 248.931 240.661C247.975 236.352 248.453 234.916 249.25 233.959C249.887 233.001 249.25 230.448 249.25 229.171C249.409 227.416 250.525 225.023 251.481 223.108C251.481 222.948 251.641 222.948 251.641 222.789C254.669 217.203 264.233 219.916 269.653 223.906C271.884 225.501 273.319 227.097 273.638 228.533C274.594 233.48 270.29 236.193 269.653 240.661Z" fill="#F2CCD0"/>
<path d="M274.435 231.565C273 234.757 272.363 235.554 269.812 240.98C269.653 241.14 269.653 241.299 269.493 241.459C269.015 241.937 268.378 242.097 267.581 242.257C266.146 242.576 264.393 242.416 263.596 241.299C262.321 239.544 262.799 234.118 260.248 233.161C257.698 232.363 257.379 236.352 257.379 237.629C256.901 237.629 255.945 236.831 255.466 236.512C255.148 236.193 256.423 233.959 255.148 231.884C254.669 231.086 254.51 230.129 254.51 229.012C254.51 226.618 253.394 224.384 251.322 223.108C251.322 223.108 251.322 223.108 251.163 223.108C250.047 222.469 248.294 220.874 249.091 219.597C250.525 217.203 257.379 214.81 263.914 216.725C266.465 217.363 269.015 218.799 271.087 221.033C271.087 221.033 271.247 221.033 271.247 221.193H271.406C276.347 223.906 275.55 229.012 274.435 231.565Z" fill="#625D5D"/>
<path d="M258.017 288.054C257.539 292.203 255.466 296.671 254.988 300.661C254.669 303.373 254.351 306.086 254.032 308.639C250.844 307.522 248.772 306.086 249.091 304.809C251.641 294.118 251.8 287.097 248.772 278.001C246.54 271.459 245.265 264.278 244.627 260.767C245.106 259.012 245.903 257.895 247.815 259.65C251.163 262.522 248.931 267.629 250.525 271.778C251.322 274.171 252.757 275.927 254.988 278.959C257.06 281.831 258.495 284.703 258.017 288.054Z" fill="#8A63E0"/>
<path d="M215.617 224.544C214.82 222.948 217.37 219.916 218.008 218.799C218.327 218.161 218.008 216.246 217.689 213.852C216.892 212.416 215.458 210.023 215.139 210.182C214.661 210.82 214.661 212.735 215.777 214.012C215.617 215.289 215.936 216.246 215.458 216.725C213.386 214.969 213.704 212.735 212.589 211.14C212.11 210.342 211.473 209.384 210.995 208.427C210.516 206.991 210.198 206.672 209.719 206.033C209.401 205.395 208.285 205.714 208.444 206.672C208.604 207.15 208.763 207.948 209.401 208.906C209.879 210.182 210.198 211.618 210.357 211.937C210.676 212.576 210.835 213.214 210.835 213.214C210.676 213.374 209.879 213.852 209.56 214.172C209.082 214.491 209.082 215.129 208.444 215.608C208.125 215.927 207.488 216.086 207.169 216.406C206.691 216.884 205.734 218.32 206.85 220.395C208.763 224.065 210.995 225.98 210.995 225.98L215.617 224.544Z" fill="#F2CCD0"/>
<path d="M251.003 269.863C250.844 272.895 249.25 274.81 245.903 273.852C237.933 271.459 230.919 263.161 221.196 252.629C218.327 247.044 210.038 231.086 211.313 225.98C211.632 225.82 211.951 225.342 212.429 225.023C213.704 223.906 215.458 222.469 216.574 223.906C217.689 230.288 228.688 236.991 229.644 247.842C233.31 250.554 235.701 253.586 244.627 257.895C248.931 259.81 251.322 265.714 251.003 269.863Z" fill="#8A63E0"/>
<path d="M257.379 247.682C260.248 247.682 266.783 249.278 269.334 244.969C270.131 245.448 272.203 247.682 272.362 248.48C272.362 252.788 261.842 257.256 255.466 252.948C255.307 251.352 257.379 247.682 257.379 247.682Z" fill="#8A63E0"/>
<path d="M251.003 269.863C250.844 272.895 249.25 274.81 245.903 273.852C237.933 271.459 230.919 263.161 221.196 252.629C218.327 247.044 210.038 231.086 211.313 225.98C211.632 225.82 211.951 225.342 212.429 225.023C212.589 227.097 216.414 226.937 217.052 229.012C218.646 233.48 219.921 235.076 221.993 239.544C223.746 243.374 223.587 248.799 226.137 249.757C231.876 251.831 234.426 259.65 239.846 262.363C242.396 263.639 245.106 264.597 247.337 266.193C248.931 266.99 250.206 268.267 251.003 269.863Z" fill="#7E5ACC"/>
<path d="M274.435 231.565C273 234.757 272.362 235.554 269.812 240.98C269.653 241.139 269.653 241.299 269.493 241.459C269.015 241.937 268.378 242.097 267.581 242.256C267.74 241.937 267.899 241.778 267.899 241.459C268.378 239.863 268.537 238.108 268.378 236.512C268.059 233.64 269.175 233.48 269.812 230.767C270.131 229.491 267.102 226.459 271.406 224.384C271.725 224.225 269.972 221.352 266.784 219.437C264.074 217.842 263.596 216.884 264.074 216.565C266.624 217.203 269.175 218.64 271.247 220.874C271.247 220.874 271.406 220.874 271.406 221.033C271.406 221.033 271.565 221.193 271.565 221.033C276.347 223.906 275.55 229.012 274.435 231.565Z" fill="#524E4E"/>
</svg>
