<?xml version="1.0" encoding="utf-8"?>
<!-- Generator: Adobe Illustrator 23.0.1, SVG Export Plug-In . SVG Version: 6.00 Build 0)  -->
<svg version="1.1" id="Layer_1" xmlns="http://www.w3.org/2000/svg" xmlns:xlink="http://www.w3.org/1999/xlink" x="0px" y="0px"
	 viewBox="0 0 476 514" style="enable-background:new 0 0 476 514;" xml:space="preserve">
<style type="text/css">
	.st0{fill:none;stroke:#5E4399;stroke-width:4;}
	.st1{fill:#F0EDF5;}
	.st2{fill:#735BA8;}
	.st3{fill:#55457A;}
	.st4{fill:#503F75;}
	.st5{fill:#7E5ACC;}
	.st6{fill:#FFFFFF;}
	.st7{fill:#6A549C;}
	.st8{fill:#61C5BD;}
	.st9{fill:#FF6680;}
	.st10{fill:#D94E6A;}
	.st11{fill:#57B0A9;}
	.st12{fill:#F2CCD0;}
	.st13{fill:#625D5D;}
	.st14{fill:#8A63E0;}
	.st15{fill:#524E4E;}
</style>
<path class="st0" d="M432.8,436.4c18.4-20.7,27.9-39,27.9-54.7c0-5.7-2.5-10.3-7.3-13.7c-4.2-4.1-9.4-6.1-15.5-6.1h-81.3
	c-7.1,0-12.8,0.9-17,3l-0.1,0l-0.1,0c-3.5,2.1-8.1,6.7-13.8,13.6l0,0l0,0c-22.3,28.2-51.7,42.3-88.2,42.3
	c-30.9,0-55.2-11.3-73.1-33.9c-17.4-23.3-26.7-52-27.9-86v-5.5h311.9c7.4,0,13.6-2.4,18.4-7.1c4.8-4.8,7.2-10.6,7.2-17.4v-19.7
	c0-75.3-20.6-135.8-62-181.3C371.2,24.6,313.3,2,238.5,2C168.8,2,112.8,22.4,70.7,63.5l0,0l0,0C29.3,104.5,7.1,161,3.9,232.5l0,0
	L3,256l0,0.1l0,0.1l0.9,23.4c0,0,0,0,0,0C6.5,353,28.4,410.4,69.8,451.5l0,0l0,0c42,40.4,98.4,60.5,168.7,60.5
	c44.3,0,83.4-7.5,117.1-22.7C389.2,474.3,415,456.6,432.8,436.4z M313.5,124.3L313.5,124.3L313.5,124.3
	c18.6,22.1,27.9,51.2,27.9,87.8v0.8H136.5V212c0-36.5,9.1-65.7,27-87.8c17.8-22,42.8-33,75-33S295.7,102.3,313.5,124.3z"/>
<path class="st1" d="M210.2,122.7c2.5-1.4,4.5-0.4,4.5,2.5l0.5,195.5c0,2.9-2,6.3-4.3,7.6l-92.1,53.3c-2.5,1.4-4.5,0.4-4.5-2.5
	l-0.5-195.5c0-2.9,2-6.3,4.3-7.6L210.2,122.7z"/>
<path class="st2" d="M219.1,246.8l-0.2-79.7l-0.2-52.1c0-5.4-3.8-7.6-8.5-4.9l-92.1,53.3c-4.7,2.7-8.5,9.4-8.5,14.8v31.3l0.2,44.7
	V275v20.4l0.2,94c0,5.4,3.8,7.6,8.5,4.9l92.1-53.3c4.7-2.7,8.5-9.4,8.5-14.8V246.8z M210.8,328.3l-92.1,53.3
	c-2.5,1.4-4.5,0.4-4.5-2.5l-0.2-86.1v-20.4v-20.8l-0.2-44.7v-23.5c0-2.9,2-6.3,4.3-7.6l92.1-53.3c2.5-1.4,4.5-0.4,4.5,2.5v44.1
	l0.2,79.7l0.2,71.6C215.3,323.6,213.3,327.1,210.8,328.3z"/>
<path class="st3" d="M209.5,105.6c-1.6-0.9-3.6-0.7-6.1,0.5l-92.1,53.3c-4.7,2.7-8.5,9.4-8.5,14.8l0.5,211.2c0,2.7,0.9,4.5,2.5,5.4
	l6.9,4c-1.4-0.9-2.5-2.7-2.5-5.4l-0.5-211.4c0-5.4,3.8-11.9,8.5-14.8l92.1-53.3c2.3-1.1,4.5-1.3,6.1-0.4L209.5,105.6z"/>
<path class="st4" d="M166.2,142.8l-15.9,9.2c-0.4,0.2-0.7,0-0.7-0.5c0-0.5,0.4-1.1,0.7-1.3l16.1-9.2c0.4-0.2,0.7,0,0.7,0.5
	C166.9,142.1,166.5,142.6,166.2,142.8z"/>
<path class="st4" d="M169.2,140.3c0-0.9,0.7-2.2,1.8-2.7c0.9-0.5,1.8-0.2,1.8,0.7c0,0.9-0.7,2.2-1.8,2.7
	C170,141.5,169.2,141.2,169.2,140.3z"/>
<path class="st4" d="M169.2,140.3c0-0.9,0.7-2.2,1.8-2.7c0.9-0.5,1.8-0.2,1.8,0.7c0,0.9-0.7,2.2-1.8,2.7
	C170,141.5,169.2,141.2,169.2,140.3z"/>
<path class="st3" d="M146.6,300.8c-0.5-0.3-1.2-0.3-2,0.2l-54.8,31.7c-1.5,0.9-2.8,3.1-2.8,4.8l0.2,28.5c0,0.9,0.3,1.5,0.8,1.8
	l1.2,0.6c-0.5-0.3-0.8-0.9-0.8-1.8L88.2,338c0-1.8,1.2-4,2.8-4.8l54.7-31.6c0.8-0.5,1.5-0.5,2-0.2L146.6,300.8z"/>
<path class="st5" d="M145.7,301.6c1.5-0.9,2.8-0.2,2.8,1.5l0.2,28.5c0,1.8-1.2,4-2.8,4.8L91,368.3c-1.5,0.9-2.8,0.2-2.8-1.5
	l-0.2-28.5c0-1.8,1.2-4,2.8-4.8L145.7,301.6z"/>
<path class="st6" d="M107.1,343.1v1.8l-6.6,3.8V339l6.4-3.8v1.8l-4.4,2.6v2.1l4-2.3v1.8l-4,2.3v2.3L107.1,343.1z"/>
<path class="st6" d="M108.4,336.5l5.8-3.4v1.7l-5.8,3.4V336.5z M108.4,340.1l5.8-3.4v1.7l-5.8,3.4V340.1z"/>
<path class="st6" d="M126.2,327c0.5,0.3,0.8,0.9,0.8,2.1v4.3l-1.8,1.1v-4c0-0.6-0.2-0.9-0.3-1.2c-0.2-0.2-0.5-0.2-0.9,0.2
	c-0.5,0.3-0.8,0.6-1.1,1.1c-0.3,0.5-0.5,1.1-0.5,1.7v3.8l-1.8,1.1v-4c0-1.2-0.5-1.5-1.2-1.1c-0.5,0.3-0.8,0.6-1.1,1.1
	c-0.3,0.5-0.5,1.1-0.5,1.7v3.8l-1.8,1.1v-7.5l1.8-1.1v0.9c0.3-0.5,0.6-0.9,0.9-1.2c0.3-0.3,0.8-0.6,1.2-0.9c0.5-0.3,0.9-0.5,1.2-0.5
	c0.3,0,0.6,0.2,0.9,0.5c0.3-0.6,0.6-1.1,1.1-1.5c0.5-0.5,0.9-0.8,1.4-1.1C125.1,326.7,125.8,326.7,126.2,327z"/>
<path class="st6" d="M130,331.2c-0.6,0-1.1-0.2-1.4-0.6c-0.3-0.5-0.5-0.9-0.5-1.7s0.2-1.5,0.5-2.3s0.8-1.5,1.4-2.1
	c0.6-0.6,1.2-1.2,1.8-1.5c0.8-0.5,1.2-0.6,1.8-0.6c0.5,0,0.9,0.3,1.1,0.8l-1.5,1.8c-0.3-0.5-0.8-0.6-1.5-0.2
	c-0.5,0.3-0.9,0.8-1.2,1.2c-0.3,0.6-0.5,1.2-0.5,1.8c0,0.6,0.2,1.1,0.5,1.2c0.3,0.2,0.8,0.2,1.2-0.2c0.6-0.3,1.1-1.1,1.5-1.8h1.5
	c-0.3,0.8-0.6,1.4-1.1,2c-0.5,0.6-1.1,1.2-1.8,1.5C131.3,331,130.7,331.2,130,331.2z"/>
<path class="st6" d="M139.8,320.8v1.2l-4.3,2.5v-0.9l2.1-3.4c0.2-0.3,0.5-0.6,0.5-0.8c0.2-0.2,0.2-0.3,0.2-0.5c0-0.2,0-0.3-0.2-0.3
	c-0.2,0-0.3,0-0.6,0.2c-0.3,0.2-0.5,0.3-0.6,0.6c-0.2,0.2-0.3,0.5-0.5,0.8l-0.9-0.2c0.2-0.5,0.5-0.9,0.9-1.4
	c0.3-0.5,0.8-0.8,1.4-1.1c0.6-0.3,1.2-0.5,1.5-0.5c0.3,0.2,0.6,0.5,0.6,0.9c0,0.3,0,0.6-0.2,0.9c-0.2,0.3-0.5,0.8-0.8,1.4l-1.2,1.8
	L139.8,320.8z"/>
<path class="st3" d="M220,157.8l0.9,0.5c-0.1,0-0.1,0-0.3-0.1h-0.1c-0.4,0-0.8,0-1.2,0.3l-46.2,26.8c-1.3,0.8-2.3,2.6-2.3,4v3.6
	v48.2c0,0.3,0,0.4,0,0.5c0,0.1,0,0.1,0,0.1c0,0.1,0,0.1,0.1,0.3c0,0,0,0.1,0.1,0.1l0.1,0.1c0,0.1,0.1,0.1,0.3,0.1l-0.9-0.5
	c-0.4-0.3-0.6-0.8-0.6-1.6v-47.1v-4.8c0-1.6,1-3.4,2.3-4l46.2-26.7C219.1,157.6,219.7,157.6,220,157.8z"/>
<path class="st7" d="M221.9,211.6c0,1.6-1,3.4-2.3,4L189,233.4l-15.8,9.1c-0.6,0.4-1.3,0.4-1.8,0.1c-0.1,0-0.1-0.1-0.3-0.1l-0.1-0.1
	l-0.1-0.1c0,0,0-0.1-0.1-0.3v-0.1c0-0.1,0-0.4,0-0.5v-48.2v-3.6c0-1.6,1-3.4,2.3-4l46.2-26.7c0.4-0.3,0.9-0.4,1.2-0.3h0.1
	c0.1,0,0.1,0,0.3,0.1c0,0,0,0,0.1,0c0.4,0.3,0.6,0.8,0.6,1.6L221.9,211.6z"/>
<path class="st3" d="M210.2,152.3l1.1,0.9c-0.1,0-0.4-0.1-0.6-0.3l-0.4-0.2c-0.4,0-0.5-0.1-0.9,0.2l-46.4,26.8
	c-1.3,0.8-2.3,2.6-2.3,4v3.6v48.2c0,0.3,0,0.4,0,0.5c0,0.1,0,0.1,0,0.1c0,0.1,0,0.1,0.1,0.3c0,0,0,0.1,0.1,0.1l0.1,0.1
	c0,0.1,0.1,0.1,0.3,0.1l-0.9-0.5c-0.4-0.3-0.6-0.8-0.6-1.6v-47.1V183c0-1.6,1-3.4,2.3-4l46.2-26.7
	C209.2,152.1,209.8,152.1,210.2,152.3z"/>
<path class="st4" d="M211.9,205.9c0,1.6-1,3.4-2.3,4L179,227.7l-15.8,9.1c-0.6,0.4-1.3,0.4-1.8,0.1c-0.1,0-0.1-0.1-0.3-0.1l-0.1-0.1
	l-0.1-0.1c0,0,0-0.1-0.1-0.3v-0.1c0-0.1,0-0.4,0-0.5v-48.2v-3.6c0-1.6,1-3.4,2.3-4l46.2-26.7c0.4-0.3,0.9-0.4,1.2-0.3h0.1
	c0.1,0,0.1,0,0.3,0.1c0,0,0,0,0.1,0c0.4,0.3,0.6,0.8,0.6,1.6L211.9,205.9z"/>
<path class="st3" d="M230.3,164.3l0.9,0.5c-0.1,0-0.1,0-0.3-0.1h-0.1c-0.4,0-0.8,0-1.2,0.3l-46.4,26.8c-1.3,0.8-2.3,2.6-2.3,4v3.6
	v48.2c0,0.3,0,0.4,0,0.5c0,0.1,0,0.1,0,0.1c0,0.1,0,0.1,0.1,0.3c0,0,0,0.1,0.1,0.1l0.1,0.1c0,0.1,0.1,0.1,0.3,0.1l-0.9-0.5
	c-0.4-0.3-0.6-0.8-0.6-1.6v-47.1v-4.8c0-1.6,1-3.4,2.3-4l46.2-26.7C229.2,164.1,229.9,164.1,230.3,164.3z"/>
<path class="st8" d="M232,218.3c0,1.6-1,3.4-2.3,4l-30.6,17.6l-15.8,9.1c-0.6,0.4-1.3,0.4-1.8,0.1c-0.1,0-0.1-0.1-0.3-0.1l-0.1-0.1
	l-0.1-0.1c0,0,0-0.1-0.1-0.3v-0.1c0-0.1,0-0.4,0-0.5v-48.2V196c0-1.6,1-3.4,2.3-4l46.2-26.7c0.4-0.3,0.9-0.4,1.2-0.3h0.1
	c0.1,0,0.1,0,0.3,0.1c0,0,0,0,0.1,0c0.4,0.3,0.6,0.8,0.6,1.6L232,218.3z"/>
<path class="st1" d="M215.1,200.2l-9.6-0.8c-1-0.1-1.8,0.6-1.8,1.7v12.7c0,1.6,1.9,2.3,3,1l9.6-11.9
	C217.2,201.9,216.5,200.4,215.1,200.2z"/>
<path class="st3" d="M121.9,267.3l-28.4,16.5c-3.6,2-6.5-0.2-6.5-4.7v-46.8c0-4.7,2.9-10.1,6.3-12.1l28.4-16.5
	c3.4-2,6.3,0.2,6.3,4.9v46.7C128.2,259.9,125.3,265.3,121.9,267.3z"/>
<path class="st5" d="M123.5,268.2l-28.5,16.5c-3.4,2-6.3-0.2-6.3-4.9v-46.7c0-4.7,2.9-10.1,6.3-12.1l28.4-16.5
	c3.4-2,6.3,0.2,6.3,4.9v46.7C129.8,260.8,126.9,266.2,123.5,268.2z"/>
<path class="st6" d="M121.9,231.7l-24.9,14.5c-1.4,0.9-2.7,0-2.7-2V232c0-2,1.3-4.3,2.7-5.1l24.9-14.5c1.4-0.9,2.7,0,2.7,2v12.1
	C124.6,228.4,123.3,230.8,121.9,231.7z"/>
<path class="st8" d="M106,258.1l-9.9,6c-1.1,0.5-1.8,0-1.8-1.4v-6.7c0-1.4,0.9-2.9,1.8-3.6l10.1-5.8c1.1-0.5,1.8,0,1.8,1.4v6.7
	C108,255.9,107,257.5,106,258.1z"/>
<path class="st8" d="M122.6,248.5l-10.1,5.8c-1.1,0.5-1.8,0-1.8-1.4v-6.7c0-1.4,0.9-2.9,1.8-3.6l10.1-5.8c1.1-0.5,1.8,0,1.8,1.4v6.7
	C124.6,246.3,123.7,248,122.6,248.5z"/>
<path class="st8" d="M106,272.5l-9.9,5.8c-1.1,0.5-1.8,0-1.8-1.4v-6.7c0-1.4,0.9-2.9,1.8-3.6l10.1-5.8c1.1-0.5,1.8,0,1.8,1.4v6.7
	C108,270.4,107,272,106,272.5z"/>
<path class="st9" d="M122.6,263l-10.1,5.8c-1.1,0.5-1.8,0-1.8-1.4v-6.7c0-1.4,0.9-2.9,1.8-3.6l10.1-5.8c1.1-0.5,1.8,0,1.8,1.4v6.7
	C124.6,260.6,123.7,262.2,122.6,263z"/>
<path class="st6" d="M101.4,257.7l-0.9,0.5v-5.6l0.9-0.5V257.7z"/>
<path class="st6" d="M103.4,253.2v1.3l-4.9,2.7v-1.1L103.4,253.2z"/>
<path class="st6" d="M99.6,272.7l-0.7-0.4l3.4-6l0.7,0.4L99.6,272.7z"/>
<path class="st6" d="M103.1,270l-0.7,1.3l-3.4-2l0.7-1.3L103.1,270z"/>
<path class="st6" d="M120.1,243.6v1.3l-4.9,2.7v-1.3L120.1,243.6z"/>
<path class="st6" d="M120.1,256.6v1.3l-4.9,2.7v-1.1L120.1,256.6z"/>
<path class="st6" d="M120.1,259.2v1.3l-4.9,2.7v-1.1L120.1,259.2z"/>
<path class="st10" d="M227.4,395.4c-0.8,1-1,2.7-0.5,3.5c1.4,2.4,6.2,4.8,8.6,5.9c2.4,1,4.6,2.6,7.8,3.7c2.5,1,7,0.5,7.3-1.8
	c0.3-2.2-0.3-4.8-0.3-4.8L227.4,395.4z"/>
<path class="st9" d="M243,395.4c-2.2-0.2-7.7-0.6-10.5-1.3s-4.5,0.3-5.1,1.3c-1,1.4,3.3,5.1,6.5,6.2s6.5,3.4,9.4,4.1
	c1.6,0.5,5.9,1,6.7-1.6c1-2.7-0.6-8.6-0.6-8.6L243,395.4z"/>
<path class="st10" d="M256.9,384.9c-0.8,1-1,2.7-0.5,3.5c1.4,2.4,6.4,4.5,8.6,5.9c2.7,1.6,3.2,3.7,6.4,4.8c2.5,1,7,0.5,7.3-1.8
	s-0.3-4.8-0.3-4.8L256.9,384.9z"/>
<path class="st9" d="M270.9,384.8c-2.4,0.2-5.7,0.6-8.6-0.5c-2.9-1.1-4.8-0.3-5.4,0.6c-1,1.4,3.3,5.3,6.5,6.2c4.1,1.3,5.1,4.5,8,5.3
	c1.6,0.5,5.9,1,6.7-1.6c1-2.7-0.6-8.6-0.6-8.6L270.9,384.8z"/>
<path class="st8" d="M278.4,388.6c-0.2,1.3-1,1.8-2.1,1.9c-2.4,0.3-6.2-1.8-6.7-3.8c-0.6-2.9-0.2-32.4-0.8-34.9
	c-6.9-24.7,0.2-52.5,0.2-52.5l3.3,2.4l7.5,2.4c1.1,4.6,2.2,13.7,1.8,22.8c-0.2,8.3-2.5,23-2.7,25.2
	C283.5,360,279.5,378.7,278.4,388.6z"/>
<path class="st11" d="M278.4,388.6c-0.2,1.3-1,1.8-2.1,1.9l-0.3-0.8c3.5-11.6-3-29-0.3-36.4c-0.5-14-5.9-23.9-6.7-38
	c-0.3-6.5,3.7-7,3.3-13.6l7.5,2.4c1.1,4.6,2.4,12.1,1.8,21.2c-0.2,8.3-2.7,24.6-2.9,26.8C283.5,360,279.5,378.7,278.4,388.6z"/>
<path class="st8" d="M263.4,321.4c-1.9,12-13.5,32.1-14.5,34.6c5.7,6.7,1.6,33.5,1.8,40.7v0.2c-1.1,1.9-8.6,1.6-9.1-2.2
	c-0.5-4-3.8-33.4-4-40.9c2.4-16.1,9.1-38.3,12.6-50.7c3.8-0.3,5.7,0.6,7.3-1.4c5.4-6.5,18.5-6.2,21.8,0.6c0.3,0.5,0.5,1.1,0.6,1.8
	C283,317.6,271.4,322.2,263.4,321.4z"/>
<path class="st11" d="M263.4,321.4c-1.9,12-13.5,32.1-14.5,34.6c5.7,6.7,1.6,33.5,1.8,40.7v0.2c-0.5,0.5-0.6,1-2.1,1.1
	c0-6.2-0.5-17.9-1.6-23.9c-1.3-6.1-3.3-12.6-0.6-19c0.3-3.7,1.3-7.3,2.4-10.9c1.8-6.2,3.7-12.4,5.4-18.5c0.8-2.9,1.8-6.1,4-8.1
	c2.9-2.7,7-3.4,10.8-4.1c3.8-0.8,8-2.6,9.4-6.2c0.5-1.3,0.5-2.7,1-4.1c0-0.2,0.2-0.3,0.2-0.6c0.3,0.5,0.5,1.1,0.6,1.8
	C283,317.6,271.4,322.2,263.4,321.4z"/>
<path class="st5" d="M278.4,247.7c3.8,1.1,6.4,6.5,9.2,14.2c3.2,8.6,2.7,19.1,1,23.6c-0.8,3.4-27.9-3.5-27.9-3.5s-1-6.5-0.3-6.5
	c0.6-0.2,12.1-1.9,19.8,0c-4.6-14.5-3.3-18.8-3.3-18.8L278.4,247.7z"/>
<path class="st5" d="M276.3,277.7c-0.3,3.7,2.2,13.2,3.5,26.3c-2.1,8-17.7,7.3-25.8,4.6c-3.2-1.1-5.3-2.6-4.9-3.8
	c2.6-10.7,2.7-17.7-0.3-26.8c-2.2-6.5-3.5-13.7-4.1-17.2c-0.2-1.4-0.3-2.2-0.3-2.2l12.3-5.9l9.1-4.5c0,0,9.1-1.1,12.4-0.5
	c2.5,0.5,6.1,4.9,5.9,6.7C283.2,262.7,276.7,274,276.3,277.7z"/>
<path class="st12" d="M269.7,240.7c0,0.3,0,0.5-0.2,0.8c-0.2,1.3-0.3,1.8-0.3,2.2c0,0.6,0.2,1.4,0.2,4.9c-1,5.9-11.2,5.3-11.3,4
	c-0.2-1.9-1.3-4.9-0.8-6.5c-1.1,0-3.3,0.5-5.1,0.2c-1.4-0.3-2.4-1.4-3.2-5.6c-1-4.3-0.5-5.7,0.3-6.7c0.6-1,0-3.5,0-4.8
	c0.2-1.8,1.3-4.1,2.2-6.1c0-0.2,0.2-0.2,0.2-0.3c3-5.6,12.6-2.9,18,1.1c2.2,1.6,3.7,3.2,4,4.6C274.6,233.5,270.3,236.2,269.7,240.7z
	"/>
<path class="st13" d="M274.4,231.6c-1.4,3.2-2.1,4-4.6,9.4c-0.2,0.2-0.2,0.3-0.3,0.5c-0.5,0.5-1.1,0.6-1.9,0.8c-1.4,0.3-3.2,0.2-4-1
	c-1.3-1.8-0.8-7.2-3.3-8.1c-2.5-0.8-2.9,3.2-2.9,4.5c-0.5,0-1.4-0.8-1.9-1.1c-0.3-0.3,1-2.6-0.3-4.6c-0.5-0.8-0.6-1.8-0.6-2.9
	c0-2.4-1.1-4.6-3.2-5.9c0,0,0,0-0.2,0c-1.1-0.6-2.9-2.2-2.1-3.5c1.4-2.4,8.3-4.8,14.8-2.9c2.6,0.6,5.1,2.1,7.2,4.3
	c0,0,0.2,0,0.2,0.2h0.2C276.3,223.9,275.5,229,274.4,231.6z"/>
<path class="st14" d="M258,288.1c-0.5,4.1-2.6,8.6-3,12.6c-0.3,2.7-0.6,5.4-1,8c-3.2-1.1-5.3-2.6-4.9-3.8
	c2.6-10.7,2.7-17.7-0.3-26.8c-2.2-6.5-3.5-13.7-4.1-17.2c0.5-1.8,1.3-2.9,3.2-1.1c3.3,2.9,1.1,8,2.7,12.1c0.8,2.4,2.2,4.1,4.5,7.2
	C257.1,281.8,258.5,284.7,258,288.1z"/>
<path class="st12" d="M215.6,224.5c-0.8-1.6,1.8-4.6,2.4-5.7c0.3-0.6,0-2.6-0.3-4.9c-0.8-1.4-2.2-3.8-2.5-3.7
	c-0.5,0.6-0.5,2.6,0.6,3.8c-0.2,1.3,0.2,2.2-0.3,2.7c-2.1-1.8-1.8-4-2.9-5.6c-0.5-0.8-1.1-1.8-1.6-2.7c-0.5-1.4-0.8-1.8-1.3-2.4
	c-0.3-0.6-1.4-0.3-1.3,0.6c0.2,0.5,0.3,1.3,1,2.2c0.5,1.3,0.8,2.7,1,3c0.3,0.6,0.5,1.3,0.5,1.3c-0.2,0.2-1,0.6-1.3,1
	c-0.5,0.3-0.5,1-1.1,1.4c-0.3,0.3-1,0.5-1.3,0.8c-0.5,0.5-1.4,1.9-0.3,4c1.9,3.7,4.1,5.6,4.1,5.6L215.6,224.5z"/>
<path class="st14" d="M251,269.9c-0.2,3-1.8,4.9-5.1,4c-8-2.4-15-10.7-24.7-21.2c-2.9-5.6-11.2-21.5-9.9-26.6c0.3-0.2,0.6-0.6,1.1-1
	c1.3-1.1,3-2.6,4.1-1.1c1.1,6.4,12.1,13.1,13.1,23.9c3.7,2.7,6.1,5.7,15,10.1C248.9,259.8,251.3,265.7,251,269.9z"/>
<path class="st14" d="M257.4,247.7c2.9,0,9.4,1.6,12-2.7c0.8,0.5,2.9,2.7,3,3.5c0,4.3-10.5,8.8-16.9,4.5
	C255.3,251.4,257.4,247.7,257.4,247.7z"/>
<path class="st5" d="M251,269.9c-0.2,3-1.8,4.9-5.1,4c-8-2.4-15-10.7-24.7-21.2c-2.9-5.6-11.2-21.5-9.9-26.6c0.3-0.2,0.6-0.6,1.1-1
	c0.2,2.1,4,1.9,4.6,4c1.6,4.5,2.9,6.1,4.9,10.5c1.8,3.8,1.6,9.3,4.1,10.2c5.7,2.1,8.3,9.9,13.7,12.6c2.6,1.3,5.3,2.2,7.5,3.8
	C248.9,267,250.2,268.3,251,269.9z"/>
<path class="st15" d="M274.4,231.6c-1.4,3.2-2.1,4-4.6,9.4c-0.2,0.2-0.2,0.3-0.3,0.5c-0.5,0.5-1.1,0.6-1.9,0.8
	c0.2-0.3,0.3-0.5,0.3-0.8c0.5-1.6,0.6-3.4,0.5-4.9c-0.3-2.9,0.8-3,1.4-5.7c0.3-1.3-2.7-4.3,1.6-6.4c0.3-0.2-1.4-3-4.6-4.9
	c-2.7-1.6-3.2-2.6-2.7-2.9c2.5,0.6,5.1,2.1,7.2,4.3c0,0,0.2,0,0.2,0.2c0,0,0.2,0.2,0.2,0C276.3,223.9,275.5,229,274.4,231.6z"/>
</svg>
